<?xml version="1.0" encoding="UTF-8" standalone="no"?>
<!DOCTYPE svg PUBLIC "-//W3C//DTD SVG 1.1//EN"
 "http://www.w3.org/Graphics/SVG/1.1/DTD/svg11.dtd">
<!-- Generated by graphviz version 2.40.1 (20161225.0304)
 -->
<!-- Title: dependencies Pages: 1 -->
<svg width="603pt" height="284pt"
 viewBox="0.00 0.00 603.00 284.00" xmlns="http://www.w3.org/2000/svg" xmlns:xlink="http://www.w3.org/1999/xlink">
<g id="graph0" class="graph" transform="scale(1 1) rotate(0) translate(4 280)">
<title>dependencies</title>
<polygon fill="#ffffff" stroke="transparent" points="-4,4 -4,-280 599,-280 599,4 -4,4"/>
<text text-anchor="start" x="276.5091" y="-42.4" font-family="sans-serif" font-weight="bold" font-size="14.00" fill="#000000">Legend</text>
<polygon fill="#ffffb3" stroke="transparent" points="63.5,-10 63.5,-30 83.5,-30 83.5,-10 63.5,-10"/>
<text text-anchor="start" x="87.129" y="-15.4" font-family="sans-serif" font-size="14.00" fill="#000000"> &#160;Declarations</text>
<polygon fill="#8dd3c7" stroke="transparent" points="176.5,-10 176.5,-30 196.5,-30 196.5,-10 176.5,-10"/>
<text text-anchor="start" x="200.2251" y="-15.4" font-family="sans-serif" font-size="14.00" fill="#000000"> &#160;Module</text>
<polygon fill="#80b1d3" stroke="transparent" points="262.5,-10 262.5,-30 282.5,-30 282.5,-10 262.5,-10"/>
<text text-anchor="start" x="286.2812" y="-15.4" font-family="sans-serif" font-size="14.00" fill="#000000"> &#160;Bootstrap</text>
<polygon fill="#fdb462" stroke="transparent" points="359.5,-10 359.5,-30 379.5,-30 379.5,-10 359.5,-10"/>
<text text-anchor="start" x="383.1732" y="-15.4" font-family="sans-serif" font-size="14.00" fill="#000000"> &#160;Providers</text>
<polygon fill="#fb8072" stroke="transparent" points="455.5,-10 455.5,-30 475.5,-30 475.5,-10 455.5,-10"/>
<text text-anchor="start" x="479.2258" y="-15.4" font-family="sans-serif" font-size="14.00" fill="#000000"> &#160;Exports</text>
<g id="clust1" class="cluster">
<title>cluster_ReportModule</title>
<polygon fill="none" stroke="#000000" stroke-dasharray="1,5" points="8,-70 8,-268 587,-268 587,-70 8,-70"/>
</g>
<g id="clust2" class="cluster">
<title>cluster_ReportModule_declarations</title>
<polygon fill="none" stroke="#000000" points="294,-78 294,-130 579,-130 579,-78 294,-78"/>
</g>
<g id="clust5" class="cluster">
<title>cluster_ReportModule_imports</title>
<polygon fill="none" stroke="#000000" points="172,-78 172,-130 286,-130 286,-78 172,-78"/>
</g>
<g id="clust7" class="cluster">
<title>cluster_ReportModule_bootstrap</title>
<polygon fill="none" stroke="#000000" points="229,-208 229,-260 367,-260 367,-208 229,-208"/>
</g>
<g id="clust8" class="cluster">
<title>cluster_ReportModule_providers</title>
<polygon fill="none" stroke="#000000" points="16,-78 16,-130 164,-130 164,-78 16,-78"/>
</g>
<!-- ReportComponent -->
<g id="node1" class="node">
<title>ReportComponent</title>
<polygon fill="#ffffb3" stroke="#000000" points="570.9356,-122 451.0644,-122 451.0644,-86 570.9356,-86 570.9356,-122"/>
<text text-anchor="middle" x="511" y="-99.8" font-family="Times,serif" font-size="14.00" fill="#000000">ReportComponent</text>
</g>
<!-- ReportModule -->
<g id="node3" class="node">
<title>ReportModule</title>
<polygon fill="#8dd3c7" stroke="#000000" points="346.6528,-187 343.6528,-191 322.6528,-191 319.6528,-187 249.3472,-187 249.3472,-151 346.6528,-151 346.6528,-187"/>
<text text-anchor="middle" x="298" y="-164.8" font-family="Times,serif" font-size="14.00" fill="#000000">ReportModule</text>
</g>
<!-- ReportComponent&#45;&gt;ReportModule -->
<g id="edge1" class="edge">
<title>ReportComponent&#45;&gt;ReportModule</title>
<path fill="none" stroke="#000000" d="M511,-122.1061C511,-141.3391 511,-169 511,-169 511,-169 356.8665,-169 356.8665,-169"/>
<polygon fill="#000000" stroke="#000000" points="356.8665,-165.5001 346.8665,-169 356.8665,-172.5001 356.8665,-165.5001"/>
</g>
<!-- MultivalueFieldPipe -->
<g id="node2" class="node">
<title>MultivalueFieldPipe</title>
<polygon fill="#ffffb3" stroke="#000000" points="433.6024,-122 302.3976,-122 302.3976,-86 433.6024,-86 433.6024,-122"/>
<text text-anchor="middle" x="368" y="-99.8" font-family="Times,serif" font-size="14.00" fill="#000000">MultivalueFieldPipe</text>
</g>
<!-- MultivalueFieldPipe&#45;&gt;ReportModule -->
<g id="edge2" class="edge">
<title>MultivalueFieldPipe&#45;&gt;ReportModule</title>
<path fill="none" stroke="#000000" d="M324.6375,-122.1061C324.6375,-122.1061 324.6375,-140.991 324.6375,-140.991"/>
<polygon fill="#000000" stroke="#000000" points="321.1375,-140.9909 324.6375,-150.991 328.1375,-140.991 321.1375,-140.9909"/>
</g>
<!-- ReportComponent  -->
<g id="node5" class="node">
<title>ReportComponent </title>
<polygon fill="#80b1d3" stroke="#000000" points="359.4348,-252 236.5652,-252 236.5652,-216 359.4348,-216 359.4348,-252"/>
<text text-anchor="middle" x="298" y="-229.8" font-family="Times,serif" font-size="14.00" fill="#000000">ReportComponent </text>
</g>
<!-- ReportModule&#45;&gt;ReportComponent  -->
<g id="edge4" class="edge">
<title>ReportModule&#45;&gt;ReportComponent </title>
<path fill="none" stroke="#000000" stroke-dasharray="1,5" d="M298,-187.1061C298,-187.1061 298,-205.991 298,-205.991"/>
<polygon fill="#000000" stroke="#000000" points="294.5001,-205.9909 298,-215.991 301.5001,-205.991 294.5001,-205.9909"/>
</g>
<!-- SharedModule -->
<g id="node4" class="node">
<title>SharedModule</title>
<polygon fill="#8dd3c7" stroke="#000000" points="278.4231,-122 275.4231,-126 254.4231,-126 251.4231,-122 179.5769,-122 179.5769,-86 278.4231,-86 278.4231,-122"/>
<text text-anchor="middle" x="229" y="-99.8" font-family="Times,serif" font-size="14.00" fill="#000000">SharedModule</text>
</g>
<!-- SharedModule&#45;&gt;ReportModule -->
<g id="edge3" class="edge">
<title>SharedModule&#45;&gt;ReportModule</title>
<path fill="none" stroke="#000000" d="M263.6925,-122.1061C263.6925,-122.1061 263.6925,-140.991 263.6925,-140.991"/>
<polygon fill="#000000" stroke="#000000" points="260.1926,-140.9909 263.6925,-150.991 267.1926,-140.991 260.1926,-140.9909"/>
</g>
<!-- ReportService -->
<g id="node6" class="node">
<title>ReportService</title>
<ellipse fill="#fdb462" stroke="#000000" cx="90" cy="-104" rx="66.0492" ry="18"/>
<text text-anchor="middle" x="90" y="-99.8" font-family="Times,serif" font-size="14.00" fill="#000000">ReportService</text>
</g>
<!-- ReportService&#45;&gt;ReportModule -->
<g id="edge5" class="edge">
<title>ReportService&#45;&gt;ReportModule</title>
<path fill="none" stroke="#000000" d="M90,-122.1061C90,-141.3391 90,-169 90,-169 90,-169 239.2332,-169 239.2332,-169"/>
<polygon fill="#000000" stroke="#000000" points="239.2333,-172.5001 249.2332,-169 239.2332,-165.5001 239.2333,-172.5001"/>
</g>
</g>
</svg>
