<?xml version="1.0" encoding="UTF-8" standalone="no"?>
<!DOCTYPE svg PUBLIC "-//W3C//DTD SVG 1.1//EN"
 "http://www.w3.org/Graphics/SVG/1.1/DTD/svg11.dtd">
<!-- Generated by graphviz version 2.40.1 (20161225.0304)
 -->
<!-- Title: dependencies Pages: 1 -->
<svg width="6055pt" height="284pt"
 viewBox="0.00 0.00 6055.00 284.00" xmlns="http://www.w3.org/2000/svg" xmlns:xlink="http://www.w3.org/1999/xlink">
<g id="graph0" class="graph" transform="scale(1 1) rotate(0) translate(4 280)">
<title>dependencies</title>
<polygon fill="#ffffff" stroke="transparent" points="-4,4 -4,-280 6051,-280 6051,4 -4,4"/>
<text text-anchor="start" x="3002.5091" y="-42.4" font-family="sans-serif" font-weight="bold" font-size="14.00" fill="#000000">Legend</text>
<polygon fill="#ffffb3" stroke="transparent" points="2789.5,-10 2789.5,-30 2809.5,-30 2809.5,-10 2789.5,-10"/>
<text text-anchor="start" x="2813.129" y="-15.4" font-family="sans-serif" font-size="14.00" fill="#000000"> &#160;Declarations</text>
<polygon fill="#8dd3c7" stroke="transparent" points="2902.5,-10 2902.5,-30 2922.5,-30 2922.5,-10 2902.5,-10"/>
<text text-anchor="start" x="2926.2251" y="-15.4" font-family="sans-serif" font-size="14.00" fill="#000000"> &#160;Module</text>
<polygon fill="#80b1d3" stroke="transparent" points="2988.5,-10 2988.5,-30 3008.5,-30 3008.5,-10 2988.5,-10"/>
<text text-anchor="start" x="3012.2812" y="-15.4" font-family="sans-serif" font-size="14.00" fill="#000000"> &#160;Bootstrap</text>
<polygon fill="#fdb462" stroke="transparent" points="3085.5,-10 3085.5,-30 3105.5,-30 3105.5,-10 3085.5,-10"/>
<text text-anchor="start" x="3109.1732" y="-15.4" font-family="sans-serif" font-size="14.00" fill="#000000"> &#160;Providers</text>
<polygon fill="#fb8072" stroke="transparent" points="3181.5,-10 3181.5,-30 3201.5,-30 3201.5,-10 3181.5,-10"/>
<text text-anchor="start" x="3205.2258" y="-15.4" font-family="sans-serif" font-size="14.00" fill="#000000"> &#160;Exports</text>
<g id="clust1" class="cluster">
<title>cluster_SharedModule</title>
<polygon fill="none" stroke="#000000" stroke-dasharray="1,5" points="8,-70 8,-268 6039,-268 6039,-70 8,-70"/>
</g>
<g id="clust2" class="cluster">
<title>cluster_SharedModule_declarations</title>
<polygon fill="none" stroke="#000000" points="1865,-78 1865,-130 6031,-130 6031,-78 1865,-78"/>
</g>
<g id="clust27" class="cluster">
<title>cluster_SharedModule_exports</title>
<polygon fill="none" stroke="#000000" points="1216,-208 1216,-260 4904,-260 4904,-208 1216,-208"/>
</g>
<g id="clust29" class="cluster">
<title>cluster_SharedModule_providers</title>
<polygon fill="none" stroke="#000000" points="16,-78 16,-130 1857,-130 1857,-78 16,-78"/>
</g>
<!-- DmpFieldComponent -->
<g id="node1" class="node">
<title>DmpFieldComponent</title>
<polygon fill="#ffffb3" stroke="#000000" points="6023.108,-122 5884.892,-122 5884.892,-86 6023.108,-86 6023.108,-122"/>
<text text-anchor="middle" x="5954" y="-99.8" font-family="Times,serif" font-size="14.00" fill="#000000">DmpFieldComponent</text>
</g>
<!-- SharedModule -->
<g id="node24" class="node">
<title>SharedModule</title>
<polygon fill="#8dd3c7" stroke="#000000" points="3125.4231,-187 3122.4231,-191 3101.4231,-191 3098.4231,-187 3026.5769,-187 3026.5769,-151 3125.4231,-151 3125.4231,-187"/>
<text text-anchor="middle" x="3076" y="-164.8" font-family="Times,serif" font-size="14.00" fill="#000000">SharedModule</text>
</g>
<!-- DmpFieldComponent&#45;&gt;SharedModule -->
<g id="edge1" class="edge">
<title>DmpFieldComponent&#45;&gt;SharedModule</title>
<path fill="none" stroke="#000000" d="M5954,-122.0267C5954,-142.7672 5954,-174 5954,-174 5954,-174 3135.3476,-174 3135.3476,-174"/>
<polygon fill="#000000" stroke="#000000" points="3135.3476,-170.5001 3125.3476,-174 3135.3475,-177.5001 3135.3476,-170.5001"/>
</g>
<!-- TextFieldComponent -->
<g id="node2" class="node">
<title>TextFieldComponent</title>
<polygon fill="#ffffb3" stroke="#000000" points="5866.7688,-122 5731.2312,-122 5731.2312,-86 5866.7688,-86 5866.7688,-122"/>
<text text-anchor="middle" x="5799" y="-99.8" font-family="Times,serif" font-size="14.00" fill="#000000">TextFieldComponent</text>
</g>
<!-- TextFieldComponent&#45;&gt;SharedModule -->
<g id="edge2" class="edge">
<title>TextFieldComponent&#45;&gt;SharedModule</title>
<path fill="none" stroke="#000000" d="M5799,-122.2228C5799,-142.3652 5799,-172 5799,-172 5799,-172 3135.2938,-172 3135.2938,-172"/>
<polygon fill="#000000" stroke="#000000" points="3135.2938,-168.5001 3125.2938,-172 3135.2938,-175.5001 3135.2938,-168.5001"/>
</g>
<!-- DropdownFieldComponent -->
<g id="node3" class="node">
<title>DropdownFieldComponent</title>
<polygon fill="#ffffb3" stroke="#000000" points="5712.9846,-122 5543.0154,-122 5543.0154,-86 5712.9846,-86 5712.9846,-122"/>
<text text-anchor="middle" x="5628" y="-99.8" font-family="Times,serif" font-size="14.00" fill="#000000">DropdownFieldComponent</text>
</g>
<!-- DropdownFieldComponent&#45;&gt;SharedModule -->
<g id="edge3" class="edge">
<title>DropdownFieldComponent&#45;&gt;SharedModule</title>
<path fill="none" stroke="#000000" d="M5628,-122.308C5628,-142.1455 5628,-171 5628,-171 5628,-171 3135.2653,-171 3135.2653,-171"/>
<polygon fill="#000000" stroke="#000000" points="3135.2653,-167.5001 3125.2653,-171 3135.2653,-174.5001 3135.2653,-167.5001"/>
</g>
<!-- TabOrAccordionContainerComponent -->
<g id="node4" class="node">
<title>TabOrAccordionContainerComponent</title>
<polygon fill="#ffffb3" stroke="#000000" points="5525.1615,-122 5292.8385,-122 5292.8385,-86 5525.1615,-86 5525.1615,-122"/>
<text text-anchor="middle" x="5409" y="-99.8" font-family="Times,serif" font-size="14.00" fill="#000000">TabOrAccordionContainerComponent</text>
</g>
<!-- TabOrAccordionContainerComponent&#45;&gt;SharedModule -->
<g id="edge4" class="edge">
<title>TabOrAccordionContainerComponent&#45;&gt;SharedModule</title>
<path fill="none" stroke="#000000" d="M5409,-122.1061C5409,-141.3391 5409,-169 5409,-169 5409,-169 3135.2663,-169 3135.2663,-169"/>
<polygon fill="#000000" stroke="#000000" points="3135.2663,-165.5001 3125.2663,-169 3135.2663,-172.5001 3135.2663,-165.5001"/>
</g>
<!-- ButtonBarContainerComponent -->
<g id="node5" class="node">
<title>ButtonBarContainerComponent</title>
<polygon fill="#ffffb3" stroke="#000000" points="5274.3696,-122 5079.6304,-122 5079.6304,-86 5274.3696,-86 5274.3696,-122"/>
<text text-anchor="middle" x="5177" y="-99.8" font-family="Times,serif" font-size="14.00" fill="#000000">ButtonBarContainerComponent</text>
</g>
<!-- ButtonBarContainerComponent&#45;&gt;SharedModule -->
<g id="edge5" class="edge">
<title>ButtonBarContainerComponent&#45;&gt;SharedModule</title>
<path fill="none" stroke="#000000" d="M5177,-122.1686C5177,-141.0898 5177,-168 5177,-168 5177,-168 3135.3509,-168 3135.3509,-168"/>
<polygon fill="#000000" stroke="#000000" points="3135.351,-164.5001 3125.3509,-168 3135.3509,-171.5001 3135.351,-164.5001"/>
</g>
<!-- TextBlockComponent -->
<g id="node6" class="node">
<title>TextBlockComponent</title>
<polygon fill="#ffffb3" stroke="#000000" points="5061.4327,-122 4920.5673,-122 4920.5673,-86 5061.4327,-86 5061.4327,-122"/>
<text text-anchor="middle" x="4991" y="-99.8" font-family="Times,serif" font-size="14.00" fill="#000000">TextBlockComponent</text>
</g>
<!-- TextBlockComponent&#45;&gt;SharedModule -->
<g id="edge6" class="edge">
<title>TextBlockComponent&#45;&gt;SharedModule</title>
<path fill="none" stroke="#000000" d="M4991,-122.2222C4991,-140.8285 4991,-167 4991,-167 4991,-167 3135.2618,-167 3135.2618,-167"/>
<polygon fill="#000000" stroke="#000000" points="3135.2618,-163.5001 3125.2618,-167 3135.2617,-170.5001 3135.2618,-163.5001"/>
</g>
<!-- TextAreaComponent -->
<g id="node7" class="node">
<title>TextAreaComponent</title>
<polygon fill="#ffffb3" stroke="#000000" points="4903.1867,-122 4768.8133,-122 4768.8133,-86 4903.1867,-86 4903.1867,-122"/>
<text text-anchor="middle" x="4836" y="-99.8" font-family="Times,serif" font-size="14.00" fill="#000000">TextAreaComponent</text>
</g>
<!-- TextAreaComponent&#45;&gt;SharedModule -->
<g id="edge7" class="edge">
<title>TextAreaComponent&#45;&gt;SharedModule</title>
<path fill="none" stroke="#000000" d="M4832.3554,-122.302C4832.3554,-140.2699 4832.3554,-165 4832.3554,-165 4832.3554,-165 3135.2706,-165 3135.2706,-165"/>
<polygon fill="#000000" stroke="#000000" points="3135.2706,-161.5001 3125.2706,-165 3135.2706,-168.5001 3135.2706,-161.5001"/>
</g>
<!-- DateTimeComponent -->
<g id="node8" class="node">
<title>DateTimeComponent</title>
<polygon fill="#ffffb3" stroke="#000000" points="4750.8075,-122 4613.1925,-122 4613.1925,-86 4750.8075,-86 4750.8075,-122"/>
<text text-anchor="middle" x="4682" y="-99.8" font-family="Times,serif" font-size="14.00" fill="#000000">DateTimeComponent</text>
</g>
<!-- DateTimeComponent&#45;&gt;SharedModule -->
<g id="edge8" class="edge">
<title>DateTimeComponent&#45;&gt;SharedModule</title>
<path fill="none" stroke="#000000" d="M4674.9904,-122.002C4674.9904,-139.6754 4674.9904,-164 4674.9904,-164 4674.9904,-164 3135.608,-164 3135.608,-164"/>
<polygon fill="#000000" stroke="#000000" points="3135.608,-160.5001 3125.608,-164 3135.608,-167.5001 3135.608,-160.5001"/>
</g>
<!-- AnchorOrButtonComponent -->
<g id="node9" class="node">
<title>AnchorOrButtonComponent</title>
<polygon fill="#ffffb3" stroke="#000000" points="4595.1993,-122 4418.8007,-122 4418.8007,-86 4595.1993,-86 4595.1993,-122"/>
<text text-anchor="middle" x="4507" y="-99.8" font-family="Times,serif" font-size="14.00" fill="#000000">AnchorOrButtonComponent</text>
</g>
<!-- AnchorOrButtonComponent&#45;&gt;SharedModule -->
<g id="edge9" class="edge">
<title>AnchorOrButtonComponent&#45;&gt;SharedModule</title>
<path fill="none" stroke="#000000" d="M4499.3214,-122.0225C4499.3214,-139.3734 4499.3214,-163 4499.3214,-163 4499.3214,-163 3135.4073,-163 3135.4073,-163"/>
<polygon fill="#000000" stroke="#000000" points="3135.4073,-159.5001 3125.4073,-163 3135.4072,-166.5001 3135.4073,-159.5001"/>
</g>
<!-- SaveButtonComponent -->
<g id="node10" class="node">
<title>SaveButtonComponent</title>
<polygon fill="#ffffb3" stroke="#000000" points="4401.1624,-122 4254.8376,-122 4254.8376,-86 4401.1624,-86 4401.1624,-122"/>
<text text-anchor="middle" x="4328" y="-99.8" font-family="Times,serif" font-size="14.00" fill="#000000">SaveButtonComponent</text>
</g>
<!-- SaveButtonComponent&#45;&gt;SharedModule -->
<g id="edge10" class="edge">
<title>SaveButtonComponent&#45;&gt;SharedModule</title>
<path fill="none" stroke="#000000" d="M4321.2499,-122.0352C4321.2499,-138.7344 4321.2499,-161 4321.2499,-161 4321.2499,-161 3135.5837,-161 3135.5837,-161"/>
<polygon fill="#000000" stroke="#000000" points="3135.5837,-157.5001 3125.5837,-161 3135.5837,-164.5001 3135.5837,-157.5001"/>
</g>
<!-- CancelButtonComponent -->
<g id="node11" class="node">
<title>CancelButtonComponent</title>
<polygon fill="#ffffb3" stroke="#000000" points="4237.3215,-122 4078.6785,-122 4078.6785,-86 4237.3215,-86 4237.3215,-122"/>
<text text-anchor="middle" x="4158" y="-99.8" font-family="Times,serif" font-size="14.00" fill="#000000">CancelButtonComponent</text>
</g>
<!-- CancelButtonComponent&#45;&gt;SharedModule -->
<g id="edge11" class="edge">
<title>CancelButtonComponent&#45;&gt;SharedModule</title>
<path fill="none" stroke="#000000" d="M4106.5121,-122.027C4106.5121,-138.3976 4106.5121,-160 4106.5121,-160 4106.5121,-160 3135.3566,-160 3135.3566,-160"/>
<polygon fill="#000000" stroke="#000000" points="3135.3566,-156.5001 3125.3566,-160 3135.3565,-163.5001 3135.3566,-156.5001"/>
</g>
<!-- VocabFieldComponent -->
<g id="node12" class="node">
<title>VocabFieldComponent</title>
<polygon fill="#ffffb3" stroke="#000000" points="4061.147,-122 3914.853,-122 3914.853,-86 4061.147,-86 4061.147,-122"/>
<text text-anchor="middle" x="3988" y="-99.8" font-family="Times,serif" font-size="14.00" fill="#000000">VocabFieldComponent</text>
</g>
<!-- VocabFieldComponent&#45;&gt;SharedModule -->
<g id="edge12" class="edge">
<title>VocabFieldComponent&#45;&gt;SharedModule</title>
<path fill="none" stroke="#000000" d="M3926.8906,-122.2819C3926.8906,-137.9478 3926.8906,-158 3926.8906,-158 3926.8906,-158 3135.4253,-158 3135.4253,-158"/>
<polygon fill="#000000" stroke="#000000" points="3135.4254,-154.5001 3125.4253,-158 3135.4253,-161.5001 3135.4254,-154.5001"/>
</g>
<!-- RepeatableVocabComponent -->
<g id="node13" class="node">
<title>RepeatableVocabComponent</title>
<polygon fill="#ffffb3" stroke="#000000" points="3897.059,-122 3716.941,-122 3716.941,-86 3897.059,-86 3897.059,-122"/>
<text text-anchor="middle" x="3807" y="-99.8" font-family="Times,serif" font-size="14.00" fill="#000000">RepeatableVocabComponent</text>
</g>
<!-- RepeatableVocabComponent&#45;&gt;SharedModule -->
<g id="edge13" class="edge">
<title>RepeatableVocabComponent&#45;&gt;SharedModule</title>
<path fill="none" stroke="#000000" d="M3736.4069,-122.2396C3736.4069,-137.5706 3736.4069,-157 3736.4069,-157 3736.4069,-157 3135.3678,-157 3135.3678,-157"/>
<polygon fill="#000000" stroke="#000000" points="3135.3678,-153.5001 3125.3678,-157 3135.3677,-160.5001 3135.3678,-153.5001"/>
</g>
<!-- ContributorComponent -->
<g id="node14" class="node">
<title>ContributorComponent</title>
<polygon fill="#ffffb3" stroke="#000000" points="3699.1624,-122 3552.8376,-122 3552.8376,-86 3699.1624,-86 3699.1624,-122"/>
<text text-anchor="middle" x="3626" y="-99.8" font-family="Times,serif" font-size="14.00" fill="#000000">ContributorComponent</text>
</g>
<!-- ContributorComponent&#45;&gt;SharedModule -->
<g id="edge14" class="edge">
<title>ContributorComponent&#45;&gt;SharedModule</title>
<path fill="none" stroke="#000000" d="M3576.5363,-122.1871C3576.5363,-137.1824 3576.5363,-156 3576.5363,-156 3576.5363,-156 3135.3632,-156 3135.3632,-156"/>
<polygon fill="#000000" stroke="#000000" points="3135.3632,-152.5001 3125.3632,-156 3135.3632,-159.5001 3135.3632,-152.5001"/>
</g>
<!-- RepeatableContributorComponent -->
<g id="node15" class="node">
<title>RepeatableContributorComponent</title>
<polygon fill="#ffffb3" stroke="#000000" points="3534.3529,-122 3325.6471,-122 3325.6471,-86 3534.3529,-86 3534.3529,-122"/>
<text text-anchor="middle" x="3430" y="-99.8" font-family="Times,serif" font-size="14.00" fill="#000000">RepeatableContributorComponent</text>
</g>
<!-- RepeatableContributorComponent&#45;&gt;SharedModule -->
<g id="edge15" class="edge">
<title>RepeatableContributorComponent&#45;&gt;SharedModule</title>
<path fill="none" stroke="#000000" d="M3383.7116,-122.0511C3383.7116,-136.373 3383.7116,-154 3383.7116,-154 3383.7116,-154 3135.4392,-154 3135.4392,-154"/>
<polygon fill="#000000" stroke="#000000" points="3135.4392,-150.5001 3125.4392,-154 3135.4392,-157.5001 3135.4392,-150.5001"/>
</g>
<!-- HtmlRawComponent -->
<g id="node16" class="node">
<title>HtmlRawComponent</title>
<polygon fill="#ffffb3" stroke="#000000" points="3307.7688,-122 3172.2312,-122 3172.2312,-86 3307.7688,-86 3307.7688,-122"/>
<text text-anchor="middle" x="3240" y="-99.8" font-family="Times,serif" font-size="14.00" fill="#000000">HtmlRawComponent</text>
</g>
<!-- HtmlRawComponent&#45;&gt;SharedModule -->
<g id="edge16" class="edge">
<title>HtmlRawComponent&#45;&gt;SharedModule</title>
<path fill="none" stroke="#000000" d="M3208.0945,-122.2458C3208.0945,-136.1772 3208.0945,-153 3208.0945,-153 3208.0945,-153 3135.5629,-153 3135.5629,-153"/>
<polygon fill="#000000" stroke="#000000" points="3135.563,-149.5001 3125.5629,-153 3135.5629,-156.5001 3135.563,-149.5001"/>
</g>
<!-- HiddenValueComponent -->
<g id="node17" class="node">
<title>HiddenValueComponent</title>
<polygon fill="#ffffb3" stroke="#000000" points="3153.9706,-122 2998.0294,-122 2998.0294,-86 3153.9706,-86 3153.9706,-122"/>
<text text-anchor="middle" x="3076" y="-99.8" font-family="Times,serif" font-size="14.00" fill="#000000">HiddenValueComponent</text>
</g>
<!-- HiddenValueComponent&#45;&gt;SharedModule -->
<g id="edge17" class="edge">
<title>HiddenValueComponent&#45;&gt;SharedModule</title>
<path fill="none" stroke="#000000" d="M3076,-122.1061C3076,-122.1061 3076,-140.991 3076,-140.991"/>
<polygon fill="#000000" stroke="#000000" points="3072.5001,-140.9909 3076,-150.991 3079.5001,-140.991 3072.5001,-140.9909"/>
</g>
<!-- WorkflowStepButtonComponent -->
<g id="node18" class="node">
<title>WorkflowStepButtonComponent</title>
<polygon fill="#ffffb3" stroke="#000000" points="2979.871,-122 2778.129,-122 2778.129,-86 2979.871,-86 2979.871,-122"/>
<text text-anchor="middle" x="2879" y="-99.8" font-family="Times,serif" font-size="14.00" fill="#000000">WorkflowStepButtonComponent</text>
</g>
<!-- WorkflowStepButtonComponent&#45;&gt;SharedModule -->
<g id="edge18" class="edge">
<title>WorkflowStepButtonComponent&#45;&gt;SharedModule</title>
<path fill="none" stroke="#000000" d="M2936.078,-122.2458C2936.078,-136.1772 2936.078,-153 2936.078,-153 2936.078,-153 3016.6687,-153 3016.6687,-153"/>
<polygon fill="#000000" stroke="#000000" points="3016.6688,-156.5001 3026.6687,-153 3016.6687,-149.5001 3016.6688,-156.5001"/>
</g>
<!-- LinkValueComponent -->
<g id="node19" class="node">
<title>LinkValueComponent</title>
<polygon fill="#ffffb3" stroke="#000000" points="2759.7021,-122 2618.2979,-122 2618.2979,-86 2759.7021,-86 2759.7021,-122"/>
<text text-anchor="middle" x="2689" y="-99.8" font-family="Times,serif" font-size="14.00" fill="#000000">LinkValueComponent</text>
</g>
<!-- LinkValueComponent&#45;&gt;SharedModule -->
<g id="edge19" class="edge">
<title>LinkValueComponent&#45;&gt;SharedModule</title>
<path fill="none" stroke="#000000" d="M2741.76,-122.0511C2741.76,-136.373 2741.76,-154 2741.76,-154 2741.76,-154 3016.6817,-154 3016.6817,-154"/>
<polygon fill="#000000" stroke="#000000" points="3016.6818,-157.5001 3026.6817,-154 3016.6817,-150.5001 3016.6818,-157.5001"/>
</g>
<!-- SelectionFieldComponent -->
<g id="node20" class="node">
<title>SelectionFieldComponent</title>
<polygon fill="#ffffb3" stroke="#000000" points="2600.2091,-122 2437.7909,-122 2437.7909,-86 2600.2091,-86 2600.2091,-122"/>
<text text-anchor="middle" x="2519" y="-99.8" font-family="Times,serif" font-size="14.00" fill="#000000">SelectionFieldComponent</text>
</g>
<!-- SelectionFieldComponent&#45;&gt;SharedModule -->
<g id="edge20" class="edge">
<title>SelectionFieldComponent&#45;&gt;SharedModule</title>
<path fill="none" stroke="#000000" d="M2546.9641,-122.1871C2546.9641,-137.1824 2546.9641,-156 2546.9641,-156 2546.9641,-156 3016.7047,-156 3016.7047,-156"/>
<polygon fill="#000000" stroke="#000000" points="3016.7047,-159.5001 3026.7047,-156 3016.7046,-152.5001 3016.7047,-159.5001"/>
</g>
<!-- RepeatableTextfieldComponent -->
<g id="node21" class="node">
<title>RepeatableTextfieldComponent</title>
<polygon fill="#ffffb3" stroke="#000000" points="2419.3375,-122 2224.6625,-122 2224.6625,-86 2419.3375,-86 2419.3375,-122"/>
<text text-anchor="middle" x="2322" y="-99.8" font-family="Times,serif" font-size="14.00" fill="#000000">RepeatableTextfieldComponent</text>
</g>
<!-- RepeatableTextfieldComponent&#45;&gt;SharedModule -->
<g id="edge21" class="edge">
<title>RepeatableTextfieldComponent&#45;&gt;SharedModule</title>
<path fill="none" stroke="#000000" d="M2377.8922,-122.2396C2377.8922,-137.5706 2377.8922,-157 2377.8922,-157 2377.8922,-157 3016.6323,-157 3016.6323,-157"/>
<polygon fill="#000000" stroke="#000000" points="3016.6323,-160.5001 3026.6323,-157 3016.6322,-153.5001 3016.6323,-160.5001"/>
</g>
<!-- RelatedObjectDataComponent -->
<g id="node22" class="node">
<title>RelatedObjectDataComponent</title>
<polygon fill="#ffffb3" stroke="#000000" points="2206.8375,-122 2019.1625,-122 2019.1625,-86 2206.8375,-86 2206.8375,-122"/>
<text text-anchor="middle" x="2113" y="-99.8" font-family="Times,serif" font-size="14.00" fill="#000000">RelatedObjectDataComponent</text>
</g>
<!-- RelatedObjectDataComponent&#45;&gt;SharedModule -->
<g id="edge22" class="edge">
<title>RelatedObjectDataComponent&#45;&gt;SharedModule</title>
<path fill="none" stroke="#000000" d="M2183.0917,-122.2819C2183.0917,-137.9478 2183.0917,-158 2183.0917,-158 2183.0917,-158 3016.7215,-158 3016.7215,-158"/>
<polygon fill="#000000" stroke="#000000" points="3016.7215,-161.5001 3026.7215,-158 3016.7215,-154.5001 3016.7215,-161.5001"/>
</g>
<!-- StringTemplatePipe -->
<g id="node23" class="node">
<title>StringTemplatePipe</title>
<polygon fill="#ffffb3" stroke="#000000" points="2000.9804,-122 1873.0196,-122 1873.0196,-86 2000.9804,-86 2000.9804,-122"/>
<text text-anchor="middle" x="1937" y="-99.8" font-family="Times,serif" font-size="14.00" fill="#000000">StringTemplatePipe</text>
</g>
<!-- StringTemplatePipe&#45;&gt;SharedModule -->
<g id="edge23" class="edge">
<title>StringTemplatePipe&#45;&gt;SharedModule</title>
<path fill="none" stroke="#000000" d="M1968.6524,-122.027C1968.6524,-138.3976 1968.6524,-160 1968.6524,-160 1968.6524,-160 3016.6297,-160 3016.6297,-160"/>
<polygon fill="#000000" stroke="#000000" points="3016.6297,-163.5001 3026.6297,-160 3016.6296,-156.5001 3016.6297,-163.5001"/>
</g>
<!-- DmpFieldComponent  -->
<g id="node25" class="node">
<title>DmpFieldComponent </title>
<polygon fill="#fb8072" stroke="#000000" points="4895.6085,-252 4754.3915,-252 4754.3915,-216 4895.6085,-216 4895.6085,-252"/>
<text text-anchor="middle" x="4825" y="-229.8" font-family="Times,serif" font-size="14.00" fill="#000000">DmpFieldComponent </text>
</g>
<!-- SharedModule&#45;&gt;DmpFieldComponent  -->
<g id="edge24" class="edge">
<title>SharedModule&#45;&gt;DmpFieldComponent </title>
<path fill="none" stroke="#000000" stroke-dasharray="5,2" d="M3125.5325,-175C3403.9474,-175 4761.5514,-175 4761.5514,-175 4761.5514,-175 4761.5514,-205.9775 4761.5514,-205.9775"/>
<polygon fill="#000000" stroke="#000000" points="4758.0514,-205.9774 4761.5514,-215.9775 4765.0514,-205.9775 4758.0514,-205.9774"/>
</g>
<!-- TextFieldComponent  -->
<g id="node26" class="node">
<title>TextFieldComponent </title>
<polygon fill="#fb8072" stroke="#000000" points="4736.7689,-252 4597.2311,-252 4597.2311,-216 4736.7689,-216 4736.7689,-252"/>
<text text-anchor="middle" x="4667" y="-229.8" font-family="Times,serif" font-size="14.00" fill="#000000">TextFieldComponent </text>
</g>
<!-- SharedModule&#45;&gt;TextFieldComponent  -->
<g id="edge25" class="edge">
<title>SharedModule&#45;&gt;TextFieldComponent </title>
<path fill="none" stroke="#000000" stroke-dasharray="5,2" d="M3125.5827,-176C3388.2574,-176 4605.3561,-176 4605.3561,-176 4605.3561,-176 4605.3561,-205.9664 4605.3561,-205.9664"/>
<polygon fill="#000000" stroke="#000000" points="4601.8561,-205.9663 4605.3561,-215.9664 4608.8561,-205.9664 4601.8561,-205.9663"/>
</g>
<!-- DropdownFieldComponent  -->
<g id="node27" class="node">
<title>DropdownFieldComponent </title>
<polygon fill="#fb8072" stroke="#000000" points="4579.9853,-252 4406.0147,-252 4406.0147,-216 4579.9853,-216 4579.9853,-252"/>
<text text-anchor="middle" x="4493" y="-229.8" font-family="Times,serif" font-size="14.00" fill="#000000">DropdownFieldComponent </text>
</g>
<!-- SharedModule&#45;&gt;DropdownFieldComponent  -->
<g id="edge26" class="edge">
<title>SharedModule&#45;&gt;DropdownFieldComponent </title>
<path fill="none" stroke="#000000" stroke-dasharray="5,2" d="M3125.5547,-178C3367.4458,-178 4412.5791,-178 4412.5791,-178 4412.5791,-178 4412.5791,-205.973 4412.5791,-205.973"/>
<polygon fill="#000000" stroke="#000000" points="4409.0791,-205.973 4412.5791,-215.973 4416.0791,-205.973 4409.0791,-205.973"/>
</g>
<!-- TabOrAccordionContainerComponent  -->
<g id="node28" class="node">
<title>TabOrAccordionContainerComponent </title>
<polygon fill="#fb8072" stroke="#000000" points="4387.6616,-252 4152.3384,-252 4152.3384,-216 4387.6616,-216 4387.6616,-252"/>
<text text-anchor="middle" x="4270" y="-229.8" font-family="Times,serif" font-size="14.00" fill="#000000">TabOrAccordionContainerComponent </text>
</g>
<!-- SharedModule&#45;&gt;TabOrAccordionContainerComponent  -->
<g id="edge27" class="edge">
<title>SharedModule&#45;&gt;TabOrAccordionContainerComponent </title>
<path fill="none" stroke="#000000" stroke-dasharray="5,2" d="M3125.5111,-179C3342.0064,-179 4194.665,-179 4194.665,-179 4194.665,-179 4194.665,-205.9909 4194.665,-205.9909"/>
<polygon fill="#000000" stroke="#000000" points="4191.165,-205.9909 4194.665,-215.9909 4198.165,-205.991 4191.165,-205.9909"/>
</g>
<!-- ButtonBarContainerComponent  -->
<g id="node29" class="node">
<title>ButtonBarContainerComponent </title>
<polygon fill="#fb8072" stroke="#000000" points="4134.3699,-252 3935.6301,-252 3935.6301,-216 4134.3699,-216 4134.3699,-252"/>
<text text-anchor="middle" x="4035" y="-229.8" font-family="Times,serif" font-size="14.00" fill="#000000">ButtonBarContainerComponent </text>
</g>
<!-- SharedModule&#45;&gt;ButtonBarContainerComponent  -->
<g id="edge28" class="edge">
<title>SharedModule&#45;&gt;ButtonBarContainerComponent </title>
<path fill="none" stroke="#000000" stroke-dasharray="5,2" d="M3125.2752,-181C3316.454,-181 3998.5693,-181 3998.5693,-181 3998.5693,-181 3998.5693,-205.7604 3998.5693,-205.7604"/>
<polygon fill="#000000" stroke="#000000" points="3995.0693,-205.7604 3998.5693,-215.7604 4002.0693,-205.7604 3995.0693,-205.7604"/>
</g>
<!-- TextBlockComponent  -->
<g id="node30" class="node">
<title>TextBlockComponent </title>
<polygon fill="#fb8072" stroke="#000000" points="3917.932,-252 3774.068,-252 3774.068,-216 3917.932,-216 3917.932,-252"/>
<text text-anchor="middle" x="3846" y="-229.8" font-family="Times,serif" font-size="14.00" fill="#000000">TextBlockComponent </text>
</g>
<!-- SharedModule&#45;&gt;TextBlockComponent  -->
<g id="edge29" class="edge">
<title>SharedModule&#45;&gt;TextBlockComponent </title>
<path fill="none" stroke="#000000" stroke-dasharray="5,2" d="M3125.2498,-182C3293.558,-182 3835.5318,-182 3835.5318,-182 3835.5318,-182 3835.5318,-205.8129 3835.5318,-205.8129"/>
<polygon fill="#000000" stroke="#000000" points="3832.0318,-205.8129 3835.5318,-215.8129 3839.0318,-205.813 3832.0318,-205.8129"/>
</g>
<!-- TextAreaComponent  -->
<g id="node31" class="node">
<title>TextAreaComponent </title>
<polygon fill="#fb8072" stroke="#000000" points="3755.687,-252 3618.313,-252 3618.313,-216 3755.687,-216 3755.687,-252"/>
<text text-anchor="middle" x="3687" y="-229.8" font-family="Times,serif" font-size="14.00" fill="#000000">TextAreaComponent </text>
</g>
<!-- SharedModule&#45;&gt;TextAreaComponent  -->
<g id="edge30" class="edge">
<title>SharedModule&#45;&gt;TextAreaComponent </title>
<path fill="none" stroke="#000000" stroke-dasharray="5,2" d="M3125.433,-183C3266.1412,-183 3658.7439,-183 3658.7439,-183 3658.7439,-183 3658.7439,-205.8757 3658.7439,-205.8757"/>
<polygon fill="#000000" stroke="#000000" points="3655.2439,-205.8757 3658.7439,-215.8757 3662.2439,-205.8757 3655.2439,-205.8757"/>
</g>
<!-- DateTimeComponent  -->
<g id="node32" class="node">
<title>DateTimeComponent </title>
<polygon fill="#fb8072" stroke="#000000" points="3600.3073,-252 3459.6927,-252 3459.6927,-216 3600.3073,-216 3600.3073,-252"/>
<text text-anchor="middle" x="3530" y="-229.8" font-family="Times,serif" font-size="14.00" fill="#000000">DateTimeComponent </text>
</g>
<!-- SharedModule&#45;&gt;DateTimeComponent  -->
<g id="edge31" class="edge">
<title>SharedModule&#45;&gt;DateTimeComponent </title>
<path fill="none" stroke="#000000" stroke-dasharray="5,2" d="M3125.5334,-185C3236.8243,-185 3497.0114,-185 3497.0114,-185 3497.0114,-185 3497.0114,-205.7542 3497.0114,-205.7542"/>
<polygon fill="#000000" stroke="#000000" points="3493.5115,-205.7542 3497.0114,-215.7542 3500.5115,-205.7542 3493.5115,-205.7542"/>
</g>
<!-- AnchorOrButtonComponent  -->
<g id="node33" class="node">
<title>AnchorOrButtonComponent </title>
<polygon fill="#fb8072" stroke="#000000" points="3441.6995,-252 3262.3005,-252 3262.3005,-216 3441.6995,-216 3441.6995,-252"/>
<text text-anchor="middle" x="3352" y="-229.8" font-family="Times,serif" font-size="14.00" fill="#000000">AnchorOrButtonComponent </text>
</g>
<!-- SharedModule&#45;&gt;AnchorOrButtonComponent  -->
<g id="edge32" class="edge">
<title>SharedModule&#45;&gt;AnchorOrButtonComponent </title>
<path fill="none" stroke="#000000" stroke-dasharray="5,2" d="M3125.2695,-186C3187.0642,-186 3285.0174,-186 3285.0174,-186 3285.0174,-186 3285.0174,-205.8533 3285.0174,-205.8533"/>
<polygon fill="#000000" stroke="#000000" points="3281.5174,-205.8532 3285.0174,-215.8533 3288.5174,-205.8533 3281.5174,-205.8532"/>
</g>
<!-- VocabFieldComponent  -->
<g id="node34" class="node">
<title>VocabFieldComponent </title>
<polygon fill="#fb8072" stroke="#000000" points="3244.1467,-252 3093.8533,-252 3093.8533,-216 3244.1467,-216 3244.1467,-252"/>
<text text-anchor="middle" x="3169" y="-229.8" font-family="Times,serif" font-size="14.00" fill="#000000">VocabFieldComponent </text>
</g>
<!-- SharedModule&#45;&gt;VocabFieldComponent  -->
<g id="edge33" class="edge">
<title>SharedModule&#45;&gt;VocabFieldComponent </title>
<path fill="none" stroke="#000000" stroke-dasharray="5,2" d="M3109.5689,-187.1061C3109.5689,-187.1061 3109.5689,-205.991 3109.5689,-205.991"/>
<polygon fill="#000000" stroke="#000000" points="3106.069,-205.9909 3109.5689,-215.991 3113.069,-205.991 3106.069,-205.9909"/>
</g>
<!-- RepeatableVocabComponent  -->
<g id="node35" class="node">
<title>RepeatableVocabComponent </title>
<polygon fill="#fb8072" stroke="#000000" points="3075.5595,-252 2892.4405,-252 2892.4405,-216 3075.5595,-216 3075.5595,-252"/>
<text text-anchor="middle" x="2984" y="-229.8" font-family="Times,serif" font-size="14.00" fill="#000000">RepeatableVocabComponent </text>
</g>
<!-- SharedModule&#45;&gt;RepeatableVocabComponent  -->
<g id="edge34" class="edge">
<title>SharedModule&#45;&gt;RepeatableVocabComponent </title>
<path fill="none" stroke="#000000" stroke-dasharray="5,2" d="M3051.2842,-187.1061C3051.2842,-187.1061 3051.2842,-205.991 3051.2842,-205.991"/>
<polygon fill="#000000" stroke="#000000" points="3047.7843,-205.9909 3051.2842,-215.991 3054.7843,-205.991 3047.7843,-205.9909"/>
</g>
<!-- ContributorComponent  -->
<g id="node36" class="node">
<title>ContributorComponent </title>
<polygon fill="#fb8072" stroke="#000000" points="2874.1621,-252 2723.8379,-252 2723.8379,-216 2874.1621,-216 2874.1621,-252"/>
<text text-anchor="middle" x="2799" y="-229.8" font-family="Times,serif" font-size="14.00" fill="#000000">ContributorComponent </text>
</g>
<!-- SharedModule&#45;&gt;ContributorComponent  -->
<g id="edge35" class="edge">
<title>SharedModule&#45;&gt;ContributorComponent </title>
<path fill="none" stroke="#000000" stroke-dasharray="5,2" d="M3026.6224,-186C2953.786,-186 2826.0728,-186 2826.0728,-186 2826.0728,-186 2826.0728,-205.8533 2826.0728,-205.8533"/>
<polygon fill="#000000" stroke="#000000" points="2822.5728,-205.8532 2826.0728,-215.8533 2829.5728,-205.8533 2822.5728,-205.8532"/>
</g>
<!-- RepeatableContributorComponent  -->
<g id="node37" class="node">
<title>RepeatableContributorComponent </title>
<polygon fill="#fb8072" stroke="#000000" points="2706.3531,-252 2493.6469,-252 2493.6469,-216 2706.3531,-216 2706.3531,-252"/>
<text text-anchor="middle" x="2600" y="-229.8" font-family="Times,serif" font-size="14.00" fill="#000000">RepeatableContributorComponent </text>
</g>
<!-- SharedModule&#45;&gt;RepeatableContributorComponent  -->
<g id="edge36" class="edge">
<title>SharedModule&#45;&gt;RepeatableContributorComponent </title>
<path fill="none" stroke="#000000" stroke-dasharray="5,2" d="M3026.5076,-185C2916.695,-185 2662.2877,-185 2662.2877,-185 2662.2877,-185 2662.2877,-205.7542 2662.2877,-205.7542"/>
<polygon fill="#000000" stroke="#000000" points="2658.7878,-205.7542 2662.2877,-215.7542 2665.7878,-205.7542 2658.7878,-205.7542"/>
</g>
<!-- HtmlRawComponent  -->
<g id="node38" class="node">
<title>HtmlRawComponent </title>
<polygon fill="#fb8072" stroke="#000000" points="2475.7689,-252 2336.2311,-252 2336.2311,-216 2475.7689,-216 2475.7689,-252"/>
<text text-anchor="middle" x="2406" y="-229.8" font-family="Times,serif" font-size="14.00" fill="#000000">HtmlRawComponent </text>
</g>
<!-- SharedModule&#45;&gt;HtmlRawComponent  -->
<g id="edge37" class="edge">
<title>SharedModule&#45;&gt;HtmlRawComponent </title>
<path fill="none" stroke="#000000" stroke-dasharray="5,2" d="M3026.6324,-183C2879.9297,-183 2456.7649,-183 2456.7649,-183 2456.7649,-183 2456.7649,-205.8757 2456.7649,-205.8757"/>
<polygon fill="#000000" stroke="#000000" points="2453.265,-205.8757 2456.7649,-215.8757 2460.265,-205.8757 2453.265,-205.8757"/>
</g>
<!-- HiddenValueComponent  -->
<g id="node39" class="node">
<title>HiddenValueComponent </title>
<polygon fill="#fb8072" stroke="#000000" points="2318.9713,-252 2159.0287,-252 2159.0287,-216 2318.9713,-216 2318.9713,-252"/>
<text text-anchor="middle" x="2239" y="-229.8" font-family="Times,serif" font-size="14.00" fill="#000000">HiddenValueComponent </text>
</g>
<!-- SharedModule&#45;&gt;HiddenValueComponent  -->
<g id="edge38" class="edge">
<title>SharedModule&#45;&gt;HiddenValueComponent </title>
<path fill="none" stroke="#000000" stroke-dasharray="5,2" d="M3026.5941,-182C2851.594,-182 2271.6583,-182 2271.6583,-182 2271.6583,-182 2271.6583,-205.8129 2271.6583,-205.8129"/>
<polygon fill="#000000" stroke="#000000" points="2268.1584,-205.8129 2271.6583,-215.8129 2275.1584,-205.813 2268.1584,-205.8129"/>
</g>
<!-- WorkflowStepButtonComponent  -->
<g id="node40" class="node">
<title>WorkflowStepButtonComponent </title>
<polygon fill="#fb8072" stroke="#000000" points="2141.8713,-252 1936.1287,-252 1936.1287,-216 2141.8713,-216 2141.8713,-252"/>
<text text-anchor="middle" x="2039" y="-229.8" font-family="Times,serif" font-size="14.00" fill="#000000">WorkflowStepButtonComponent </text>
</g>
<!-- SharedModule&#45;&gt;WorkflowStepButtonComponent  -->
<g id="edge39" class="edge">
<title>SharedModule&#45;&gt;WorkflowStepButtonComponent </title>
<path fill="none" stroke="#000000" stroke-dasharray="5,2" d="M3026.6272,-181C2825.7324,-181 2080.3834,-181 2080.3834,-181 2080.3834,-181 2080.3834,-205.7604 2080.3834,-205.7604"/>
<polygon fill="#000000" stroke="#000000" points="2076.8835,-205.7604 2080.3834,-215.7604 2083.8835,-205.7604 2076.8835,-205.7604"/>
</g>
<!-- LinkValueComponent  -->
<g id="node41" class="node">
<title>LinkValueComponent </title>
<polygon fill="#fb8072" stroke="#000000" points="1918.2023,-252 1773.7977,-252 1773.7977,-216 1918.2023,-216 1918.2023,-252"/>
<text text-anchor="middle" x="1846" y="-229.8" font-family="Times,serif" font-size="14.00" fill="#000000">LinkValueComponent </text>
</g>
<!-- SharedModule&#45;&gt;LinkValueComponent  -->
<g id="edge40" class="edge">
<title>SharedModule&#45;&gt;LinkValueComponent </title>
<path fill="none" stroke="#000000" stroke-dasharray="5,2" d="M3026.7859,-179C2803.4014,-179 1895.6804,-179 1895.6804,-179 1895.6804,-179 1895.6804,-205.9909 1895.6804,-205.9909"/>
<polygon fill="#000000" stroke="#000000" points="1892.1805,-205.9909 1895.6804,-215.9909 1899.1805,-205.991 1892.1805,-205.9909"/>
</g>
<!-- SelectionFieldComponent  -->
<g id="node42" class="node">
<title>SelectionFieldComponent </title>
<polygon fill="#fb8072" stroke="#000000" points="1755.7093,-252 1590.2907,-252 1590.2907,-216 1755.7093,-216 1755.7093,-252"/>
<text text-anchor="middle" x="1673" y="-229.8" font-family="Times,serif" font-size="14.00" fill="#000000">SelectionFieldComponent </text>
</g>
<!-- SharedModule&#45;&gt;SelectionFieldComponent  -->
<g id="edge41" class="edge">
<title>SharedModule&#45;&gt;SelectionFieldComponent </title>
<path fill="none" stroke="#000000" stroke-dasharray="5,2" d="M3026.694,-178C2782.3813,-178 1713.252,-178 1713.252,-178 1713.252,-178 1713.252,-205.973 1713.252,-205.973"/>
<polygon fill="#000000" stroke="#000000" points="1709.7521,-205.973 1713.252,-215.973 1716.7521,-205.973 1709.7521,-205.973"/>
</g>
<!-- RepeatableTextfieldComponent  -->
<g id="node43" class="node">
<title>RepeatableTextfieldComponent </title>
<polygon fill="#fb8072" stroke="#000000" points="1572.3377,-252 1373.6623,-252 1373.6623,-216 1572.3377,-216 1572.3377,-252"/>
<text text-anchor="middle" x="1473" y="-229.8" font-family="Times,serif" font-size="14.00" fill="#000000">RepeatableTextfieldComponent </text>
</g>
<!-- SharedModule&#45;&gt;RepeatableTextfieldComponent  -->
<g id="edge42" class="edge">
<title>SharedModule&#45;&gt;RepeatableTextfieldComponent </title>
<path fill="none" stroke="#000000" stroke-dasharray="5,2" d="M3026.6589,-176C2763.8807,-176 1540.7679,-176 1540.7679,-176 1540.7679,-176 1540.7679,-205.9664 1540.7679,-205.9664"/>
<polygon fill="#000000" stroke="#000000" points="1537.268,-205.9663 1540.7679,-215.9664 1544.268,-205.9664 1537.268,-205.9663"/>
</g>
<!-- StringTemplatePipe  -->
<g id="node44" class="node">
<title>StringTemplatePipe </title>
<polygon fill="#fb8072" stroke="#000000" points="1355.9813,-252 1224.0187,-252 1224.0187,-216 1355.9813,-216 1355.9813,-252"/>
<text text-anchor="middle" x="1290" y="-229.8" font-family="Times,serif" font-size="14.00" fill="#000000">StringTemplatePipe </text>
</g>
<!-- SharedModule&#45;&gt;StringTemplatePipe  -->
<g id="edge43" class="edge">
<title>SharedModule&#45;&gt;StringTemplatePipe </title>
<path fill="none" stroke="#000000" stroke-dasharray="5,2" d="M3026.4119,-175C2739.8314,-175 1308.327,-175 1308.327,-175 1308.327,-175 1308.327,-205.9775 1308.327,-205.9775"/>
<polygon fill="#000000" stroke="#000000" points="1304.8271,-205.9774 1308.327,-215.9775 1311.8271,-205.9775 1304.8271,-205.9774"/>
</g>
<!-- FieldControlService -->
<g id="node45" class="node">
<title>FieldControlService</title>
<ellipse fill="#fdb462" stroke="#000000" cx="1760" cy="-104" rx="89.2012" ry="18"/>
<text text-anchor="middle" x="1760" y="-99.8" font-family="Times,serif" font-size="14.00" fill="#000000">FieldControlService</text>
</g>
<!-- FieldControlService&#45;&gt;SharedModule -->
<g id="edge44" class="edge">
<title>FieldControlService&#45;&gt;SharedModule</title>
<path fill="none" stroke="#000000" d="M1811.4997,-118.9761C1811.4997,-135.8642 1811.4997,-161 1811.4997,-161 1811.4997,-161 3016.4301,-161 3016.4301,-161"/>
<polygon fill="#000000" stroke="#000000" points="3016.4301,-164.5001 3026.4301,-161 3016.4301,-157.5001 3016.4301,-164.5001"/>
</g>
<!-- RecordsService -->
<g id="node46" class="node">
<title>RecordsService</title>
<ellipse fill="#fdb462" stroke="#000000" cx="1581" cy="-104" rx="71.766" ry="18"/>
<text text-anchor="middle" x="1581" y="-99.8" font-family="Times,serif" font-size="14.00" fill="#000000">RecordsService</text>
</g>
<!-- RecordsService&#45;&gt;SharedModule -->
<g id="edge45" class="edge">
<title>RecordsService&#45;&gt;SharedModule</title>
<path fill="none" stroke="#000000" d="M1621.3892,-118.8882C1621.3892,-136.3665 1621.3892,-163 1621.3892,-163 1621.3892,-163 3016.769,-163 3016.769,-163"/>
<polygon fill="#000000" stroke="#000000" points="3016.769,-166.5001 3026.769,-163 3016.769,-159.5001 3016.769,-166.5001"/>
</g>
<!-- VocabFieldLookupService -->
<g id="node47" class="node">
<title>VocabFieldLookupService</title>
<ellipse fill="#fdb462" stroke="#000000" cx="1376" cy="-104" rx="115.1725" ry="18"/>
<text text-anchor="middle" x="1376" y="-99.8" font-family="Times,serif" font-size="14.00" fill="#000000">VocabFieldLookupService</text>
</g>
<!-- VocabFieldLookupService&#45;&gt;SharedModule -->
<g id="edge46" class="edge">
<title>VocabFieldLookupService&#45;&gt;SharedModule</title>
<path fill="none" stroke="#000000" d="M1432.4588,-119.7643C1432.4588,-137.5413 1432.4588,-164 1432.4588,-164 1432.4588,-164 3016.3643,-164 3016.3643,-164"/>
<polygon fill="#000000" stroke="#000000" points="3016.3643,-167.5001 3026.3643,-164 3016.3643,-160.5001 3016.3643,-167.5001"/>
</g>
<!-- ConfigService -->
<g id="node48" class="node">
<title>ConfigService</title>
<ellipse fill="#fdb462" stroke="#000000" cx="1176" cy="-104" rx="66.6325" ry="18"/>
<text text-anchor="middle" x="1176" y="-99.8" font-family="Times,serif" font-size="14.00" fill="#000000">ConfigService</text>
</g>
<!-- ConfigService&#45;&gt;SharedModule -->
<g id="edge47" class="edge">
<title>ConfigService&#45;&gt;SharedModule</title>
<path fill="none" stroke="#000000" d="M1233.5379,-113.2646C1233.5379,-130.3291 1233.5379,-165 1233.5379,-165 1233.5379,-165 3016.7186,-165 3016.7186,-165"/>
<polygon fill="#000000" stroke="#000000" points="3016.7186,-168.5001 3026.7186,-165 3016.7186,-161.5001 3016.7186,-168.5001"/>
</g>
<!-- TranslationService -->
<g id="node49" class="node">
<title>TranslationService</title>
<ellipse fill="#fdb462" stroke="#000000" cx="1007" cy="-104" rx="83.9431" ry="18"/>
<text text-anchor="middle" x="1007" y="-99.8" font-family="Times,serif" font-size="14.00" fill="#000000">TranslationService</text>
</g>
<!-- TranslationService&#45;&gt;SharedModule -->
<g id="edge48" class="edge">
<title>TranslationService&#45;&gt;SharedModule</title>
<path fill="none" stroke="#000000" d="M1007,-122.2222C1007,-140.8285 1007,-167 1007,-167 1007,-167 3016.6436,-167 3016.6436,-167"/>
<polygon fill="#000000" stroke="#000000" points="3016.6437,-170.5001 3026.6436,-167 3016.6436,-163.5001 3016.6437,-170.5001"/>
</g>
<!-- UserSimpleService -->
<g id="node50" class="node">
<title>UserSimpleService</title>
<ellipse fill="#fdb462" stroke="#000000" cx="819" cy="-104" rx="85.6667" ry="18"/>
<text text-anchor="middle" x="819" y="-99.8" font-family="Times,serif" font-size="14.00" fill="#000000">UserSimpleService</text>
</g>
<!-- UserSimpleService&#45;&gt;SharedModule -->
<g id="edge49" class="edge">
<title>UserSimpleService&#45;&gt;SharedModule</title>
<path fill="none" stroke="#000000" d="M819,-122.1686C819,-141.0898 819,-168 819,-168 819,-168 3016.7603,-168 3016.7603,-168"/>
<polygon fill="#000000" stroke="#000000" points="3016.7604,-171.5001 3026.7603,-168 3016.7603,-164.5001 3016.7604,-171.5001"/>
</g>
<!-- DashboardService -->
<g id="node51" class="node">
<title>DashboardService</title>
<ellipse fill="#fdb462" stroke="#000000" cx="634" cy="-104" rx="81.6423" ry="18"/>
<text text-anchor="middle" x="634" y="-99.8" font-family="Times,serif" font-size="14.00" fill="#000000">DashboardService</text>
</g>
<!-- DashboardService&#45;&gt;SharedModule -->
<g id="edge50" class="edge">
<title>DashboardService&#45;&gt;SharedModule</title>
<path fill="none" stroke="#000000" d="M634,-122.1061C634,-141.3391 634,-169 634,-169 634,-169 3016.6683,-169 3016.6683,-169"/>
<polygon fill="#000000" stroke="#000000" points="3016.6683,-172.5001 3026.6683,-169 3016.6682,-165.5001 3016.6683,-172.5001"/>
</g>
<!-- RolesService -->
<g id="node52" class="node">
<title>RolesService</title>
<ellipse fill="#fdb462" stroke="#000000" cx="472" cy="-104" rx="61.9731" ry="18"/>
<text text-anchor="middle" x="472" y="-99.8" font-family="Times,serif" font-size="14.00" fill="#000000">RolesService</text>
</g>
<!-- RolesService&#45;&gt;SharedModule -->
<g id="edge51" class="edge">
<title>RolesService&#45;&gt;SharedModule</title>
<path fill="none" stroke="#000000" d="M472,-122.308C472,-142.1455 472,-171 472,-171 472,-171 3016.5937,-171 3016.5937,-171"/>
<polygon fill="#000000" stroke="#000000" points="3016.5938,-174.5001 3026.5937,-171 3016.5937,-167.5001 3016.5938,-174.5001"/>
</g>
<!-- EmailNotificationService -->
<g id="node53" class="node">
<title>EmailNotificationService</title>
<ellipse fill="#fdb462" stroke="#000000" cx="282" cy="-104" rx="109.9421" ry="18"/>
<text text-anchor="middle" x="282" y="-99.8" font-family="Times,serif" font-size="14.00" fill="#000000">EmailNotificationService</text>
</g>
<!-- EmailNotificationService&#45;&gt;SharedModule -->
<g id="edge52" class="edge">
<title>EmailNotificationService&#45;&gt;SharedModule</title>
<path fill="none" stroke="#000000" d="M282,-122.2228C282,-142.3652 282,-172 282,-172 282,-172 3016.6168,-172 3016.6168,-172"/>
<polygon fill="#000000" stroke="#000000" points="3016.6168,-175.5001 3026.6168,-172 3016.6168,-168.5001 3016.6168,-175.5001"/>
</g>
<!-- UtilityService -->
<g id="node54" class="node">
<title>UtilityService</title>
<ellipse fill="#fdb462" stroke="#000000" cx="89" cy="-104" rx="65.4208" ry="18"/>
<text text-anchor="middle" x="89" y="-99.8" font-family="Times,serif" font-size="14.00" fill="#000000">UtilityService</text>
</g>
<!-- UtilityService&#45;&gt;SharedModule -->
<g id="edge53" class="edge">
<title>UtilityService&#45;&gt;SharedModule</title>
<path fill="none" stroke="#000000" d="M89,-122.0267C89,-142.7672 89,-174 89,-174 89,-174 3016.6472,-174 3016.6472,-174"/>
<polygon fill="#000000" stroke="#000000" points="3016.6472,-177.5001 3026.6472,-174 3016.6471,-170.5001 3016.6472,-177.5001"/>
</g>
</g>
</svg>
